<svg xmlns="http://www.w3.org/2000/svg" xmlns:xlink="http://www.w3.org/1999/xlink" version="1.1" width="164px" height="121px" viewBox="-0.5 -0.5 164 121" content="&lt;mxfile&gt;&lt;diagram id=&quot;SDESw3DXbJ8SzHrxy0lB&quot; name=&quot;Page-1&quot;&gt;3VbBjpswFPwajq0IhiTXJrvbHlqpUqT2WHnxC1gyNjJOgP36PmJj1g1oI1XdXfWS2MMw5s17g4jIvuo+a1qX3xQDESUx6yJyFyVJGhP8HYDeAptNZoFCc2ah1QQc+BM4MHboiTNoAqJRShheh2CupITcBBjVWrUh7ahEeGpNC7gCDjkV1+hPzkxp0W0WT/gX4EU5nryK3ZWKjmQn0ZSUqdZCFw65j8heK2Xsqur2IAbvRl+s0MPCVf9gGqS55Qbne2P6sTZgWKrbSiXxb1eaSuBuhUtLHziLB46VqZPOHStxPaK6AMdKfbE4JKAqMLpHigZBDT+H6tS1q/C8qSJcuKLmC9xYiTMVJycaDWen7a+VXcwa8JU+4sQGlVPBC4nrHAsFjcAZtOE4E5/chYozNmjsNDT8iT5e9GLc14pLcykh20XZHSJHJc0DrbgY5v8HaEYl9eYOutDNzbHT9E0NbM/mDXVCH+KPyXaMXR+I32y5E/8+lPOMoo7HBrv6Z0/8M9zUpmShTd1ym4TAuA9+tyU3cKjpZdpafOHMjeyMq1dDu+iez69zzjegndKfOqh8FvwR+5sBXr9KQsnbJXS7mNDk/0ro+sWEknX6bhNKFhO62KY3TCiJXy+h6YIz/TvwxQ/i+OZa/zNfcDt9t9gBmz7+yP1v&lt;/diagram&gt;&lt;/mxfile&gt;"><defs/><g><path d="M 41.99 26.29 L 117.99 51.66" fill="none" stroke="rgb(0, 0, 0)" stroke-miterlimit="10" pointer-events="stroke"/><path d="M 122.97 53.32 L 115.22 54.42 L 117.99 51.66 L 117.43 47.78 Z" fill="rgb(0, 0, 0)" stroke="rgb(0, 0, 0)" stroke-miterlimit="10" pointer-events="all"/><g transform="translate(-0.5 -0.5)"><switch><foreignObject pointer-events="none" width="100%" height="100%" requiredFeatures="http://www.w3.org/TR/SVG11/feature#Extensibility" style="overflow: visible; text-align: left;"><div xmlns="http://www.w3.org/1999/xhtml" style="display: flex; align-items: unsafe center; justify-content: unsafe center; width: 1px; height: 1px; padding-top: 36px; margin-left: 72px;"><div data-drawio-colors="color: rgb(0, 0, 0); background-color: rgb(255, 255, 255); " style="box-sizing: border-box; font-size: 0px; text-align: center;"><div style="display: inline-block; font-size: 11px; font-family: Verdana; color: rgb(0, 0, 0); line-height: 1.2; pointer-events: all; background-color: rgb(255, 255, 255); white-space: nowrap;"><mjx-container class="MathJax" jax="SVG" display="true"><svg xmlns="http://www.w3.org/2000/svg" width="2.608ex" height="1.342ex" role="img" focusable="false" viewBox="0 -443 1152.6 593" xmlns:xlink="http://www.w3.org/1999/xlink" style="vertical-align: -0.339ex;"><defs><path id="MJX-9-TEX-I-1D464" d="M580 385Q580 406 599 424T641 443Q659 443 674 425T690 368Q690 339 671 253Q656 197 644 161T609 80T554 12T482 -11Q438 -11 404 5T355 48Q354 47 352 44Q311 -11 252 -11Q226 -11 202 -5T155 14T118 53T104 116Q104 170 138 262T173 379Q173 380 173 381Q173 390 173 393T169 400T158 404H154Q131 404 112 385T82 344T65 302T57 280Q55 278 41 278H27Q21 284 21 287Q21 293 29 315T52 366T96 418T161 441Q204 441 227 416T250 358Q250 340 217 250T184 111Q184 65 205 46T258 26Q301 26 334 87L339 96V119Q339 122 339 128T340 136T341 143T342 152T345 165T348 182T354 206T362 238T373 281Q402 395 406 404Q419 431 449 431Q468 431 475 421T483 402Q483 389 454 274T422 142Q420 131 420 107V100Q420 85 423 71T442 42T487 26Q558 26 600 148Q609 171 620 213T632 273Q632 306 619 325T593 357T580 385Z"/><path id="MJX-9-TEX-N-31" d="M213 578L200 573Q186 568 160 563T102 556H83V602H102Q149 604 189 617T245 641T273 663Q275 666 285 666Q294 666 302 660V361L303 61Q310 54 315 52T339 48T401 46H427V0H416Q395 3 257 3Q121 3 100 0H88V46H114Q136 46 152 46T177 47T193 50T201 52T207 57T213 61V578Z"/></defs><g stroke="currentColor" fill="currentColor" stroke-width="0" transform="scale(1,-1)"><g data-mml-node="math"><g data-mml-node="msub"><g data-mml-node="mi"><use data-c="1D464" xlink:href="#MJX-9-TEX-I-1D464"/></g><g data-mml-node="mn" transform="translate(749,-150) scale(0.707)"><use data-c="31" xlink:href="#MJX-9-TEX-N-31"/></g></g></g></g></svg></mjx-container></div></div></div></foreignObject><text x="72" y="39" fill="rgb(0, 0, 0)" font-family="Verdana" font-size="11px" text-anchor="middle">$$w_1$$</text></switch></g><ellipse cx="23" cy="20" rx="20" ry="20" fill="rgb(255, 255, 255)" stroke="rgb(0, 0, 0)" pointer-events="all"/><g transform="translate(-0.5 -0.5)"><switch><foreignObject pointer-events="none" width="100%" height="100%" requiredFeatures="http://www.w3.org/TR/SVG11/feature#Extensibility" style="overflow: visible; text-align: left;"><div xmlns="http://www.w3.org/1999/xhtml" style="display: flex; align-items: unsafe center; justify-content: unsafe center; width: 38px; height: 1px; padding-top: 20px; margin-left: 4px;"><div data-drawio-colors="color: rgb(0, 0, 0); " style="box-sizing: border-box; font-size: 0px; text-align: center;"><div style="display: inline-block; font-size: 12px; font-family: Helvetica; color: rgb(0, 0, 0); line-height: 1.2; pointer-events: all; white-space: normal; overflow-wrap: normal;"><mjx-container class="MathJax" jax="SVG" display="true"><svg xmlns="http://www.w3.org/2000/svg" width="2.282ex" height="1.339ex" role="img" focusable="false" viewBox="0 -442 1008.6 592" xmlns:xlink="http://www.w3.org/1999/xlink" style="vertical-align: -0.339ex;"><defs><path id="MJX-10-TEX-I-1D465" d="M52 289Q59 331 106 386T222 442Q257 442 286 424T329 379Q371 442 430 442Q467 442 494 420T522 361Q522 332 508 314T481 292T458 288Q439 288 427 299T415 328Q415 374 465 391Q454 404 425 404Q412 404 406 402Q368 386 350 336Q290 115 290 78Q290 50 306 38T341 26Q378 26 414 59T463 140Q466 150 469 151T485 153H489Q504 153 504 145Q504 144 502 134Q486 77 440 33T333 -11Q263 -11 227 52Q186 -10 133 -10H127Q78 -10 57 16T35 71Q35 103 54 123T99 143Q142 143 142 101Q142 81 130 66T107 46T94 41L91 40Q91 39 97 36T113 29T132 26Q168 26 194 71Q203 87 217 139T245 247T261 313Q266 340 266 352Q266 380 251 392T217 404Q177 404 142 372T93 290Q91 281 88 280T72 278H58Q52 284 52 289Z"/><path id="MJX-10-TEX-N-31" d="M213 578L200 573Q186 568 160 563T102 556H83V602H102Q149 604 189 617T245 641T273 663Q275 666 285 666Q294 666 302 660V361L303 61Q310 54 315 52T339 48T401 46H427V0H416Q395 3 257 3Q121 3 100 0H88V46H114Q136 46 152 46T177 47T193 50T201 52T207 57T213 61V578Z"/></defs><g stroke="currentColor" fill="currentColor" stroke-width="0" transform="scale(1,-1)"><g data-mml-node="math"><g data-mml-node="msub"><g data-mml-node="mi"><use data-c="1D465" xlink:href="#MJX-10-TEX-I-1D465"/></g><g data-mml-node="mn" transform="translate(605,-150) scale(0.707)"><use data-c="31" xlink:href="#MJX-10-TEX-N-31"/></g></g></g></g></svg></mjx-container></div></div></div></foreignObject><text x="23" y="24" fill="rgb(0, 0, 0)" font-family="Helvetica" font-size="12px" text-anchor="middle">$$x_1$$</text></switch></g><path d="M 41.99 93.71 L 117.99 68.34" fill="none" stroke="rgb(0, 0, 0)" stroke-miterlimit="10" pointer-events="stroke"/><path d="M 122.97 66.68 L 117.43 72.22 L 117.99 68.34 L 115.22 65.58 Z" fill="rgb(0, 0, 0)" stroke="rgb(0, 0, 0)" stroke-miterlimit="10" pointer-events="all"/><g transform="translate(-0.5 -0.5)"><switch><foreignObject pointer-events="none" width="100%" height="100%" requiredFeatures="http://www.w3.org/TR/SVG11/feature#Extensibility" style="overflow: visible; text-align: left;"><div xmlns="http://www.w3.org/1999/xhtml" style="display: flex; align-items: unsafe center; justify-content: unsafe center; width: 1px; height: 1px; padding-top: 83px; margin-left: 74px;"><div data-drawio-colors="color: rgb(0, 0, 0); background-color: rgb(255, 255, 255); " style="box-sizing: border-box; font-size: 0px; text-align: center;"><div style="display: inline-block; font-size: 11px; font-family: Verdana; color: rgb(0, 0, 0); line-height: 1.2; pointer-events: all; background-color: rgb(255, 255, 255); white-space: nowrap;"><mjx-container class="MathJax" jax="SVG" display="true"><svg xmlns="http://www.w3.org/2000/svg" width="2.608ex" height="1.342ex" role="img" focusable="false" viewBox="0 -443 1152.6 593" xmlns:xlink="http://www.w3.org/1999/xlink" style="vertical-align: -0.339ex;"><defs><path id="MJX-11-TEX-I-1D464" d="M580 385Q580 406 599 424T641 443Q659 443 674 425T690 368Q690 339 671 253Q656 197 644 161T609 80T554 12T482 -11Q438 -11 404 5T355 48Q354 47 352 44Q311 -11 252 -11Q226 -11 202 -5T155 14T118 53T104 116Q104 170 138 262T173 379Q173 380 173 381Q173 390 173 393T169 400T158 404H154Q131 404 112 385T82 344T65 302T57 280Q55 278 41 278H27Q21 284 21 287Q21 293 29 315T52 366T96 418T161 441Q204 441 227 416T250 358Q250 340 217 250T184 111Q184 65 205 46T258 26Q301 26 334 87L339 96V119Q339 122 339 128T340 136T341 143T342 152T345 165T348 182T354 206T362 238T373 281Q402 395 406 404Q419 431 449 431Q468 431 475 421T483 402Q483 389 454 274T422 142Q420 131 420 107V100Q420 85 423 71T442 42T487 26Q558 26 600 148Q609 171 620 213T632 273Q632 306 619 325T593 357T580 385Z"/><path id="MJX-11-TEX-N-32" d="M109 429Q82 429 66 447T50 491Q50 562 103 614T235 666Q326 666 387 610T449 465Q449 422 429 383T381 315T301 241Q265 210 201 149L142 93L218 92Q375 92 385 97Q392 99 409 186V189H449V186Q448 183 436 95T421 3V0H50V19V31Q50 38 56 46T86 81Q115 113 136 137Q145 147 170 174T204 211T233 244T261 278T284 308T305 340T320 369T333 401T340 431T343 464Q343 527 309 573T212 619Q179 619 154 602T119 569T109 550Q109 549 114 549Q132 549 151 535T170 489Q170 464 154 447T109 429Z"/></defs><g stroke="currentColor" fill="currentColor" stroke-width="0" transform="scale(1,-1)"><g data-mml-node="math"><g data-mml-node="msub"><g data-mml-node="mi"><use data-c="1D464" xlink:href="#MJX-11-TEX-I-1D464"/></g><g data-mml-node="mn" transform="translate(749,-150) scale(0.707)"><use data-c="32" xlink:href="#MJX-11-TEX-N-32"/></g></g></g></g></svg></mjx-container></div></div></div></foreignObject><text x="74" y="86" fill="rgb(0, 0, 0)" font-family="Verdana" font-size="11px" text-anchor="middle">$$w_2$$</text></switch></g><ellipse cx="23" cy="100" rx="20" ry="20" fill="rgb(255, 255, 255)" stroke="rgb(0, 0, 0)" pointer-events="all"/><g transform="translate(-0.5 -0.5)"><switch><foreignObject pointer-events="none" width="100%" height="100%" requiredFeatures="http://www.w3.org/TR/SVG11/feature#Extensibility" style="overflow: visible; text-align: left;"><div xmlns="http://www.w3.org/1999/xhtml" style="display: flex; align-items: unsafe center; justify-content: unsafe center; width: 38px; height: 1px; padding-top: 100px; margin-left: 4px;"><div data-drawio-colors="color: rgb(0, 0, 0); " style="box-sizing: border-box; font-size: 0px; text-align: center;"><div style="display: inline-block; font-size: 12px; font-family: Helvetica; color: rgb(0, 0, 0); line-height: 1.2; pointer-events: all; white-space: normal; overflow-wrap: normal;"><mjx-container class="MathJax" jax="SVG" display="true"><svg xmlns="http://www.w3.org/2000/svg" width="2.282ex" height="1.339ex" role="img" focusable="false" viewBox="0 -442 1008.6 592" xmlns:xlink="http://www.w3.org/1999/xlink" style="vertical-align: -0.339ex;"><defs><path id="MJX-12-TEX-I-1D465" d="M52 289Q59 331 106 386T222 442Q257 442 286 424T329 379Q371 442 430 442Q467 442 494 420T522 361Q522 332 508 314T481 292T458 288Q439 288 427 299T415 328Q415 374 465 391Q454 404 425 404Q412 404 406 402Q368 386 350 336Q290 115 290 78Q290 50 306 38T341 26Q378 26 414 59T463 140Q466 150 469 151T485 153H489Q504 153 504 145Q504 144 502 134Q486 77 440 33T333 -11Q263 -11 227 52Q186 -10 133 -10H127Q78 -10 57 16T35 71Q35 103 54 123T99 143Q142 143 142 101Q142 81 130 66T107 46T94 41L91 40Q91 39 97 36T113 29T132 26Q168 26 194 71Q203 87 217 139T245 247T261 313Q266 340 266 352Q266 380 251 392T217 404Q177 404 142 372T93 290Q91 281 88 280T72 278H58Q52 284 52 289Z"/><path id="MJX-12-TEX-N-32" d="M109 429Q82 429 66 447T50 491Q50 562 103 614T235 666Q326 666 387 610T449 465Q449 422 429 383T381 315T301 241Q265 210 201 149L142 93L218 92Q375 92 385 97Q392 99 409 186V189H449V186Q448 183 436 95T421 3V0H50V19V31Q50 38 56 46T86 81Q115 113 136 137Q145 147 170 174T204 211T233 244T261 278T284 308T305 340T320 369T333 401T340 431T343 464Q343 527 309 573T212 619Q179 619 154 602T119 569T109 550Q109 549 114 549Q132 549 151 535T170 489Q170 464 154 447T109 429Z"/></defs><g stroke="currentColor" fill="currentColor" stroke-width="0" transform="scale(1,-1)"><g data-mml-node="math"><g data-mml-node="msub"><g data-mml-node="mi"><use data-c="1D465" xlink:href="#MJX-12-TEX-I-1D465"/></g><g data-mml-node="mn" transform="translate(605,-150) scale(0.707)"><use data-c="32" xlink:href="#MJX-12-TEX-N-32"/></g></g></g></g></svg></mjx-container></div></div></div></foreignObject><text x="23" y="104" fill="rgb(0, 0, 0)" font-family="Helvetica" font-size="12px" text-anchor="middle">$$x_2$$</text></switch></g><ellipse cx="143" cy="60" rx="20" ry="20" fill="rgb(255, 255, 255)" stroke="rgb(0, 0, 0)" pointer-events="all"/><g transform="translate(-0.5 -0.5)"><switch><foreignObject pointer-events="none" width="100%" height="100%" requiredFeatures="http://www.w3.org/TR/SVG11/feature#Extensibility" style="overflow: visible; text-align: left;"><div xmlns="http://www.w3.org/1999/xhtml" style="display: flex; align-items: unsafe center; justify-content: unsafe center; width: 38px; height: 1px; padding-top: 60px; margin-left: 124px;"><div data-drawio-colors="color: rgb(0, 0, 0); " style="box-sizing: border-box; font-size: 0px; text-align: center;"><div style="display: inline-block; font-size: 12px; font-family: Helvetica; color: rgb(0, 0, 0); line-height: 1.2; pointer-events: all; white-space: normal; overflow-wrap: normal;"><mjx-container class="MathJax" jax="SVG" display="true"><svg xmlns="http://www.w3.org/2000/svg" width="1.109ex" height="1.464ex" role="img" focusable="false" viewBox="0 -442 490 647" xmlns:xlink="http://www.w3.org/1999/xlink" style="vertical-align: -0.464ex;"><defs><path id="MJX-13-TEX-I-1D466" d="M21 287Q21 301 36 335T84 406T158 442Q199 442 224 419T250 355Q248 336 247 334Q247 331 231 288T198 191T182 105Q182 62 196 45T238 27Q261 27 281 38T312 61T339 94Q339 95 344 114T358 173T377 247Q415 397 419 404Q432 431 462 431Q475 431 483 424T494 412T496 403Q496 390 447 193T391 -23Q363 -106 294 -155T156 -205Q111 -205 77 -183T43 -117Q43 -95 50 -80T69 -58T89 -48T106 -45Q150 -45 150 -87Q150 -107 138 -122T115 -142T102 -147L99 -148Q101 -153 118 -160T152 -167H160Q177 -167 186 -165Q219 -156 247 -127T290 -65T313 -9T321 21L315 17Q309 13 296 6T270 -6Q250 -11 231 -11Q185 -11 150 11T104 82Q103 89 103 113Q103 170 138 262T173 379Q173 380 173 381Q173 390 173 393T169 400T158 404H154Q131 404 112 385T82 344T65 302T57 280Q55 278 41 278H27Q21 284 21 287Z"/></defs><g stroke="currentColor" fill="currentColor" stroke-width="0" transform="scale(1,-1)"><g data-mml-node="math"><g data-mml-node="mi"><use data-c="1D466" xlink:href="#MJX-13-TEX-I-1D466"/></g></g></g></svg></mjx-container></div></div></div></foreignObject><text x="143" y="64" fill="rgb(0, 0, 0)" font-family="Helvetica" font-size="12px" text-anchor="middle">$$y$$</text></switch></g></g><switch><g requiredFeatures="http://www.w3.org/TR/SVG11/feature#Extensibility"/><a transform="translate(0,-5)" xlink:href="https://www.diagrams.net/doc/faq/svg-export-text-problems" target="_blank"><text text-anchor="middle" font-size="10px" x="50%" y="100%">Text is not SVG - cannot display</text></a></switch></svg>